<svg>
    <symbol id="share" width="20" height="20" viewBox="0 0 20 20" fill="none" xmlns="http://www.w3.org/2000/svg">
        <path d="M17.3261 10.5055C17.5296 10.3311 17.6313 10.2439 17.6686 10.1401C17.7013 10.0491 17.7013 9.94948 17.6686 9.85842C17.6313 9.75467 17.5296 9.66748 17.3261 9.49311L10.2672 3.44259C9.917 3.14243 9.16667 2.5 9.16667 2.5C9.16667 2.5 9.16667 3.48753 9.16667 3.94876V7.52814C7.38777 7.83935 5.75966 8.74075 4.54976 10.0942C3.23069 11.5697 2.50103 13.4792 2.5 15.4584V15.9684C3.37445 14.915 4.46625 14.063 5.70063 13.4709C6.78891 12.9488 7.96535 12.6395 9.16667 12.5581V16.0498C9.16667 16.511 9.16667 17.2765 9.16667 17.2765C9.16667 17.2765 9.16667 17.2765 11.5 15.5L17.3261 10.5055Z" stroke="#52525B" stroke-linecap="round" stroke-linejoin="round"/>
    </symbol>
    <symbol id="info" width="20" height="20" viewBox="0 0 20 20" fill="none" xmlns="http://www.w3.org/2000/svg">
        <circle cx="10" cy="10" r="9.5" stroke="#52525B"/>
        <path d="M9.42179 7.678H10.5838V15H9.42179V7.678ZM10.5278 5.928C10.3785 6.07733 10.1965 6.152 9.98179 6.152C9.76712 6.152 9.58512 6.07733 9.43579 5.928C9.28646 5.77867 9.21179 5.59667 9.21179 5.382C9.21179 5.16733 9.28646 4.98533 9.43579 4.836C9.58512 4.68667 9.76712 4.612 9.98179 4.612C10.1965 4.612 10.3785 4.68667 10.5278 4.836C10.6771 4.98533 10.7518 5.16733 10.7518 5.382C10.7518 5.59667 10.6771 5.77867 10.5278 5.928Z" fill="#52525B"/>
    </symbol>
    <symbol id="weight" width="20" height="20" viewBox="0 0 20 20" fill="none" xmlns="http://www.w3.org/2000/svg">
        <path d="M10 2.5C15.2467 2.5 19.5 6.75329 19.5 12C19.5 14.5155 18.5211 16.8001 16.9248 18.5H3.0752C1.47887 16.8001 0.5 14.5155 0.5 12C0.5 6.75329 4.75329 2.5 10 2.5Z" stroke="#F22611"/>
        <circle cx="10" cy="12" r="1.5" stroke="#F22611"/>
        <path d="M16 10.3926L11.5 11.5984" stroke="#F22611"/>
        <mask id="mask0_5915_40086" style="mask-type:alpha" maskUnits="userSpaceOnUse" x="1" y="3" width="18" height="18">
            <path d="M10 3C14.9706 3 19 7.02944 19 12C19 16.9706 14.9706 21 10 21C5.02944 21 1 16.9706 1 12C1 7.02944 5.02944 3 10 3ZM10 5C6.13401 5 3 8.13401 3 12C3 15.866 6.13401 19 10 19C13.866 19 17 15.866 17 12C17 8.13401 13.866 5 10 5Z" fill="#D9D9D9"/>
        </mask>
        <g mask="url(#mask0_5915_40086)">
            <path d="M10.0001 2.49929L10.0002 11.9993" stroke="#F22611"/>
            <path d="M14.9077 3.49951L10.0005 11.9997" stroke="#F22611"/>
            <path d="M18 7.38088L10.0003 11.9994" stroke="#F22611"/>
            <path d="M19.5 12L10.0003 12" stroke="#F22611"/>
            <path d="M18.5 16.9072L10.0004 11.9999" stroke="#F22611"/>
            <path d="M5.38138 4.00018L10.0002 12.0003" stroke="#F22611"/>
            <path d="M2 7.38111L10 12" stroke="#F22611"/>
            <path d="M0.5 12L10 12" stroke="#F22611"/>
            <path d="M2 16.6188L10 12" stroke="#F22611"/>
        </g>
    </symbol>
</svg>